<?xml version="1.0" standalone="no"?>
<!DOCTYPE svg PUBLIC "-//W3C//DTD SVG 20010904//EN"
 "http://www.w3.org/TR/2001/REC-SVG-20010904/DTD/svg10.dtd">
<svg version="1.0" xmlns="http://www.w3.org/2000/svg"
 width="28.000000pt" height="28.000000pt" viewBox="0 0 28.000000 28.000000"
 preserveAspectRatio="xMidYMid meet">

<g transform="translate(0.000000,28.000000) scale(0.100000,-0.100000)"
fill="#000000" stroke="none">
<path d="M76 189 c-30 -35 -32 -58 -11 -98 32 -62 128 -57 154 8 26 62 -12
121 -78 121 -32 0 -44 -6 -65 -31z m104 11 c13 -9 13 -11 0 -20 -15 -10 -40
-14 -40 -6 0 2 -3 11 -6 20 -7 18 22 22 46 6z m-62 -12 c21 -21 13 -38 -18
-38 -31 0 -39 17 -18 38 15 15 21 15 36 0z m93 -25 c2 -36 -3 -68 -14 -81 -9
-11 -12 -11 -18 5 -12 30 -10 41 9 46 13 4 11 5 -5 6 -28 1 -29 9 -5 27 23 18
32 17 33 -3z m-95 -48 c-44 -30 -42 -30 -49 -6 -7 27 0 31 46 31 l40 0 -37
-25z m48 -17 c9 -36 8 -38 -21 -38 -48 0 -58 14 -27 39 34 27 40 26 48 -1z"/>
</g>
</svg>
