<svg id="esTFm6Uueg21" xmlns="http://www.w3.org/2000/svg" width="20" height="20" xmlns:xlink="http://www.w3.org/1999/xlink" viewBox="0 0 492.94 492.94" shape-rendering="geometricPrecision" text-rendering="geometricPrecision" project-id="f39061fa0d7140c0b843c54bc4fc263e" export-id="8175fbc5b63142aeb21ae9d901b96505" cached="false"><g transform="matrix(1.449639 0 0 1.449639-132.842546-145.601744)"><rect width="82.32" height="82.32" rx="0" ry="0" transform="translate(123.22 294.99)" fill="#f7f7f7" stroke-width="0"/><g><polygon points="342.61,268.16 316.74,293.64 261.59,238.49 287.45,212.63 342.61,268.16" opacity="0.6" fill="#f7f7f7" stroke-width="0"/><polygon points="400.1,377.31 288.12,377.31 270.64,359.83 260.83,350.02 205.69,294.88 123.22,212.41 123.22,100.44 123.43,100.65 400.06,377.27 400.1,377.31" fill="#f7f7f7" stroke-width="0"/></g><path d="M395.54,206.04c2.63,2.62,2.61,6.89-.03,9.49l-18.16,17.89-.21.21-34.52,34.53-11.88,11.33l3.92-3.74c4.36-4.16,4.45-11.1.18-15.37L197.92,123.48h114.16c.53,0,1.04.21,1.41.58l82.04,81.98h.01Z" fill="#f7f7f7" stroke-width="0"/></g></svg>
