<svg id="e7Eau9k46x81" xmlns="http://www.w3.org/2000/svg" fill="#00cea6" width="20" height="20" xmlns:xlink="http://www.w3.org/1999/xlink" viewBox="0 0 250 250" shape-rendering="geometricPrecision" text-rendering="geometricPrecision"><g transform="matrix(.060606 0 0-.053983-25.454395 259.154569)"><path d="M2350,4777c-36-13-277-146-540-298-261-151-639-369-840-484-229-132-383-226-413-254-58-54-93-110-118-192-18-58-19-109-19-1064s1-1006,19-1064c44-143,105-204,341-338c96-55,396-228,665-383c978-565,910-530,1035-530c110,0,162,20,391,152c118,68,502,290,854,492c709,408,719,414,786,552l34,69v1055v1055l-32,65c-60,122-68,128-898,605-418,241-802,463-854,493-163,95-279,115-411,69Zm799-1508c353-204,641-375,641-380c0-16-41-45-250-180-231-148-251-159-279-159-12,0-188,97-393,216-205,118-375,216-378,217s-174-92-380-208c-246-137-387-211-411-213-32-3-61,13-276,156-218,145-266,183-245,196c4,2,156,87,337,189c182,101,440,247,575,324c305,175,377,213,400,213c10,0,307-167,659-371Zm-264-613c243-139,283-166,271-185-4-5-29-22-57-37-27-15-46-31-42-35c5-4,166-98,358-209c193-111,356-208,364-216c12-10,12-16,2-28-17-20-446-295-488-312-17-8-40-11-50-7-17,7-437,246-518,296-22,13-88,52-146,86l-106,61-364-211c-452-262-409-240-450-228-56,16-494,302-497,325-2,16,114,87,705,432c632,368,712,412,743,408c21-2,131-59,275-140Z"/></g></svg>
