<svg xmlns="http://www.w3.org/2000/svg" xmlns:xlink="http://www.w3.org/1999/xlink" width="20" height="20" id="exQpwOIqJRy1" viewBox="0 0 492.94 492.94" shape-rendering="geometricPrecision" text-rendering="geometricPrecision" project-id="057d71ce332a45ee89759c10b3464767" export-id="5644310862f84e7d95c1718a54d2fe1b" cached="false"><g transform="matrix(1.658927 0 0 1.658927-187.604845-149.806187)"><rect width="82.32" height="82.32" rx="0" ry="0" transform="translate(123.22 294.99)" fill="#00cea6" stroke-width="0"/><g><polygon points="342.61,268.16 316.74,293.64 261.59,238.49 287.45,212.63 342.61,268.16" opacity="0.6" fill="#00cea6" stroke-width="0"/><polygon points="400.1,377.31 288.12,377.31 270.64,359.83 260.83,350.02 205.69,294.88 123.22,212.41 123.22,100.44 123.43,100.65 400.06,377.27 400.1,377.31" fill="#00cea6" stroke-width="0"/></g><path d="M395.54,206.04c2.63,2.62,2.61,6.89-.03,9.49l-18.16,17.89-.21.21-34.52,34.53-11.88,11.33l3.92-3.74c4.36-4.16,4.45-11.1.18-15.37L197.92,123.48h114.16c.53,0,1.04.21,1.41.58l82.04,81.98h.01Z" fill="#00cea6" stroke-width="0"/></g></svg>